<?xml version="1.0" encoding="UTF-8" standalone="no"?><svg xmlns="http://www.w3.org/2000/svg" xmlns:xlink="http://www.w3.org/1999/xlink" contentScriptType="application/ecmascript" contentStyleType="text/css" height="2772px" preserveAspectRatio="none" style="width:1706px;height:2772px;" version="1.1" viewBox="0 0 1706 2772" width="1706px" zoomAndPan="magnify"><defs><filter height="300%" id="f1re2xz5ut2sqf" width="300%" x="-1" y="-1"><feGaussianBlur result="blurOut" stdDeviation="4.0"/><feColorMatrix in="blurOut" result="blurOut2" type="matrix" values="0 0 0 0 0 0 0 0 0 0 0 0 0 0 0 0 0 0 .4 0"/><feOffset dx="8.0" dy="8.0" in="blurOut2" result="blurOut3"/><feBlend in="SourceGraphic" in2="blurOut3" mode="normal"/></filter></defs><g><rect fill="#FFFFFF" filter="url(#f1re2xz5ut2sqf)" height="330.3477" style="stroke: #A80036; stroke-width: 2.0;" width="20" x="822" y="316.8398"/><rect fill="#FFFFFF" filter="url(#f1re2xz5ut2sqf)" height="58.6211" style="stroke: #A80036; stroke-width: 2.0;" width="20" x="822" y="754.4297"/><rect fill="#FFFFFF" filter="url(#f1re2xz5ut2sqf)" height="209.1055" style="stroke: #A80036; stroke-width: 2.0;" width="20" x="822" y="962.6484"/><rect fill="#FFFFFF" filter="url(#f1re2xz5ut2sqf)" height="58.6211" style="stroke: #A80036; stroke-width: 2.0;" width="20" x="822" y="1699.3438"/><rect fill="#FFFFFF" filter="url(#f1re2xz5ut2sqf)" height="436.9688" style="stroke: #A80036; stroke-width: 2.0;" width="20" x="822" y="1907.5625"/><rect fill="#FFFFFF" filter="url(#f1re2xz5ut2sqf)" height="338.7031" style="stroke: #A80036; stroke-width: 2.0;" width="20" x="1154" y="891.6719"/><rect fill="#FFFFFF" filter="url(#f1re2xz5ut2sqf)" height="566.5664" style="stroke: #A80036; stroke-width: 2.0;" width="20" x="1154" y="1836.5859"/><rect fill="#FFFFFF" filter="url(#f1re2xz5ut2sqf)" height="207.8633" style="stroke: #A80036; stroke-width: 2.0;" width="20" x="1303" y="1384.2383"/><rect fill="#FFFFFF" filter="url(#f1re2xz5ut2sqf)" height="289.1055" style="stroke: #A80036; stroke-width: 2.0;" width="20" x="1303" y="1966.1836"/><rect fill="#FFFFFF" filter="url(#f1re2xz5ut2sqf)" height="569.1875" style="stroke: #000000; stroke-width: 4.0;" width="1322" x="108" y="677.1875"/><rect fill="#FFFFFF" filter="url(#f1re2xz5ut2sqf)" height="797.0508" style="stroke: #000000; stroke-width: 4.0;" width="1459" x="108" y="1622.1016"/><line style="stroke: #A80036; stroke-width: 2.0;" x1="188" x2="188" y1="172.9766" y2="2433.1523"/><line style="stroke: #A80036; stroke-width: 2.0; stroke-dasharray: 1.0,4.0;" x1="188" x2="188" y1="2433.1523" y2="2489.1523"/><line style="stroke: #A80036; stroke-width: 2.0;" x1="188" x2="188" y1="2489.1523" y2="2598.3945"/><line style="stroke: #A80036; stroke-width: 2.0;" x1="390" x2="390" y1="172.9766" y2="2433.1523"/><line style="stroke: #A80036; stroke-width: 2.0; stroke-dasharray: 1.0,4.0;" x1="390" x2="390" y1="2433.1523" y2="2489.1523"/><line style="stroke: #A80036; stroke-width: 2.0;" x1="390" x2="390" y1="2489.1523" y2="2598.3945"/><line style="stroke: #A80036; stroke-width: 2.0;" x1="832" x2="832" y1="272.9082" y2="2433.1523"/><line style="stroke: #A80036; stroke-width: 2.0; stroke-dasharray: 1.0,4.0;" x1="832" x2="832" y1="2433.1523" y2="2489.1523"/><line style="stroke: #A80036; stroke-width: 2.0;" x1="832" x2="832" y1="2489.1523" y2="2598.3945"/><line style="stroke: #A80036; stroke-width: 2.0;" x1="1164" x2="1164" y1="1839.4531" y2="2433.1523"/><line style="stroke: #A80036; stroke-width: 2.0; stroke-dasharray: 1.0,4.0;" x1="1164" x2="1164" y1="2433.1523" y2="2489.1523"/><line style="stroke: #A80036; stroke-width: 2.0;" x1="1164" x2="1164" y1="2489.1523" y2="2598.3945"/><line style="stroke: #A80036; stroke-width: 2.0;" x1="1312" x2="1312" y1="1340.3066" y2="2433.1523"/><line style="stroke: #A80036; stroke-width: 2.0; stroke-dasharray: 1.0,4.0;" x1="1312" x2="1312" y1="2433.1523" y2="2489.1523"/><line style="stroke: #A80036; stroke-width: 2.0;" x1="1312" x2="1312" y1="2489.1523" y2="2598.3945"/><text fill="#000000" font-family="sans-serif" font-size="28" lengthAdjust="spacingAndGlyphs" textLength="110" x="128" y="167.0703">Browser</text><ellipse cx="189" cy="26" fill="#FEFECE" filter="url(#f1re2xz5ut2sqf)" rx="16" ry="16" style="stroke: #A80036; stroke-width: 4.0;"/><path d="M189,42 L189,96 M163,58 L215,58 M189,96 L163,126 M189,96 L215,126 " fill="none" filter="url(#f1re2xz5ut2sqf)" style="stroke: #A80036; stroke-width: 4.0;"/><text fill="#000000" font-family="sans-serif" font-size="28" lengthAdjust="spacingAndGlyphs" textLength="110" x="128" y="2623.4648">Browser</text><ellipse cx="189" cy="2649.3711" fill="#FEFECE" filter="url(#f1re2xz5ut2sqf)" rx="16" ry="16" style="stroke: #A80036; stroke-width: 4.0;"/><path d="M189,2665.3711 L189,2719.3711 M163,2681.3711 L215,2681.3711 M189,2719.3711 L163,2749.3711 M189,2719.3711 L215,2749.3711 " fill="none" filter="url(#f1re2xz5ut2sqf)" style="stroke: #A80036; stroke-width: 4.0;"/><rect fill="#FEFECE" filter="url(#f1re2xz5ut2sqf)" height="60.9766" style="stroke: #A80036; stroke-width: 3.0;" width="232" x="270" y="102"/><text fill="#000000" font-family="sans-serif" font-size="28" lengthAdjust="spacingAndGlyphs" textLength="204" x="284" y="143.0703">ServiceInitiator</text><rect fill="#FEFECE" filter="url(#f1re2xz5ut2sqf)" height="60.9766" style="stroke: #A80036; stroke-width: 3.0;" width="232" x="270" y="2596.3945"/><text fill="#000000" font-family="sans-serif" font-size="28" lengthAdjust="spacingAndGlyphs" textLength="204" x="284" y="2637.4648">ServiceInitiator</text><rect fill="#FEFECE" filter="url(#f1re2xz5ut2sqf)" height="60.9766" style="stroke: #A80036; stroke-width: 3.0;" width="180" x="738" y="2596.3945"/><text fill="#000000" font-family="sans-serif" font-size="28" lengthAdjust="spacingAndGlyphs" textLength="152" x="752" y="2637.4648">gRPCClient</text><rect fill="#FEFECE" filter="url(#f1re2xz5ut2sqf)" height="60.9766" style="stroke: #A80036; stroke-width: 3.0;" width="56" x="1132" y="2596.3945"/><text fill="#000000" font-family="sans-serif" font-size="28" lengthAdjust="spacingAndGlyphs" textLength="28" x="1146" y="2637.4648">UI</text><rect fill="#FEFECE" filter="url(#f1re2xz5ut2sqf)" height="60.9766" style="stroke: #A80036; stroke-width: 3.0;" width="186" x="1216" y="2596.3945"/><text fill="#000000" font-family="sans-serif" font-size="28" lengthAdjust="spacingAndGlyphs" textLength="158" x="1230" y="2637.4648">gRPCServer</text><rect fill="#FFFFFF" filter="url(#f1re2xz5ut2sqf)" height="330.3477" style="stroke: #A80036; stroke-width: 2.0;" width="20" x="822" y="316.8398"/><rect fill="#FFFFFF" filter="url(#f1re2xz5ut2sqf)" height="58.6211" style="stroke: #A80036; stroke-width: 2.0;" width="20" x="822" y="754.4297"/><rect fill="#FFFFFF" filter="url(#f1re2xz5ut2sqf)" height="209.1055" style="stroke: #A80036; stroke-width: 2.0;" width="20" x="822" y="962.6484"/><rect fill="#FFFFFF" filter="url(#f1re2xz5ut2sqf)" height="58.6211" style="stroke: #A80036; stroke-width: 2.0;" width="20" x="822" y="1699.3438"/><rect fill="#FFFFFF" filter="url(#f1re2xz5ut2sqf)" height="436.9688" style="stroke: #A80036; stroke-width: 2.0;" width="20" x="822" y="1907.5625"/><rect fill="#FFFFFF" filter="url(#f1re2xz5ut2sqf)" height="338.7031" style="stroke: #A80036; stroke-width: 2.0;" width="20" x="1154" y="891.6719"/><rect fill="#FFFFFF" filter="url(#f1re2xz5ut2sqf)" height="566.5664" style="stroke: #A80036; stroke-width: 2.0;" width="20" x="1154" y="1836.5859"/><rect fill="#FFFFFF" filter="url(#f1re2xz5ut2sqf)" height="207.8633" style="stroke: #A80036; stroke-width: 2.0;" width="20" x="1303" y="1384.2383"/><rect fill="#FFFFFF" filter="url(#f1re2xz5ut2sqf)" height="289.1055" style="stroke: #A80036; stroke-width: 2.0;" width="20" x="1303" y="1966.1836"/><polygon fill="#A80036" points="714,288.8398,734,296.8398,714,304.8398,722,296.8398" style="stroke: #A80036; stroke-width: 2.0;"/><line style="stroke: #A80036; stroke-width: 2.0;" x1="390" x2="726" y1="296.8398" y2="296.8398"/><text fill="#000000" font-family="sans-serif" font-size="26" lengthAdjust="spacingAndGlyphs" textLength="166" x="404" y="226.1133">Initialization,</text><text fill="#000000" font-family="sans-serif" font-size="26" lengthAdjust="spacingAndGlyphs" textLength="270" x="404" y="256.7344">acquire configuration</text><text fill="#000000" font-family="sans-serif" font-size="26" lengthAdjust="spacingAndGlyphs" textLength="232" x="404" y="287.3555">with gPRC address</text><rect fill="#FEFECE" filter="url(#f1re2xz5ut2sqf)" height="60.9766" style="stroke: #A80036; stroke-width: 3.0;" width="180" x="738" y="221.8633"/><text fill="#000000" font-family="sans-serif" font-size="28" lengthAdjust="spacingAndGlyphs" textLength="152" x="752" y="262.9336">gRPCClient</text><path d="M22,223.5977 L22,273.5977 L372,273.5977 L372,243.5977 L352,223.5977 L22,223.5977 " fill="#FBFB77" filter="url(#f1re2xz5ut2sqf)" style="stroke: #A80036; stroke-width: 2.0;"/><path d="M352,223.5977 L352,243.5977 L372,243.5977 L352,223.5977 " fill="#FBFB77" style="stroke: #A80036; stroke-width: 2.0;"/><text fill="#000000" font-family="sans-serif" font-size="26" lengthAdjust="spacingAndGlyphs" textLength="308" x="34" y="258.7344">gRPC client initialization</text><line style="stroke: #A80036; stroke-width: 2.0;" x1="842" x2="926" y1="416.7031" y2="416.7031"/><line style="stroke: #A80036; stroke-width: 2.0;" x1="926" x2="926" y1="416.7031" y2="442.7031"/><line style="stroke: #A80036; stroke-width: 2.0;" x1="844" x2="926" y1="442.7031" y2="442.7031"/><polygon fill="#A80036" points="864,434.7031,844,442.7031,864,450.7031,856,442.7031" style="stroke: #A80036; stroke-width: 2.0;"/><text fill="#000000" font-family="sans-serif" font-size="26" lengthAdjust="spacingAndGlyphs" textLength="158" x="856" y="345.9766">Start serving</text><text fill="#000000" font-family="sans-serif" font-size="26" lengthAdjust="spacingAndGlyphs" textLength="194" x="856" y="376.5977">/index.html for</text><text fill="#000000" font-family="sans-serif" font-size="26" lengthAdjust="spacingAndGlyphs" textLength="238" x="856" y="407.2188">HTTP GET requests</text><line style="stroke: #A80036; stroke-width: 2.0;" x1="842" x2="926" y1="562.5664" y2="562.5664"/><line style="stroke: #A80036; stroke-width: 2.0;" x1="926" x2="926" y1="562.5664" y2="588.5664"/><line style="stroke: #A80036; stroke-width: 2.0;" x1="844" x2="926" y1="588.5664" y2="588.5664"/><polygon fill="#A80036" points="864,580.5664,844,588.5664,864,596.5664,856,588.5664" style="stroke: #A80036; stroke-width: 2.0;"/><text fill="#000000" font-family="sans-serif" font-size="26" lengthAdjust="spacingAndGlyphs" textLength="158" x="856" y="491.8398">Start serving</text><text fill="#000000" font-family="sans-serif" font-size="26" lengthAdjust="spacingAndGlyphs" textLength="188" x="856" y="522.4609">/timeseries for</text><text fill="#000000" font-family="sans-serif" font-size="26" lengthAdjust="spacingAndGlyphs" textLength="238" x="856" y="553.082">HTTP GET requests</text><polygon fill="#A80036" points="412,639.1875,392,647.1875,412,655.1875,404,647.1875" style="stroke: #A80036; stroke-width: 2.0;"/><line style="stroke: #A80036; stroke-width: 2.0; stroke-dasharray: 2.0,2.0;" x1="400" x2="830" y1="647.1875" y2="647.1875"/><text fill="#000000" font-family="sans-serif" font-size="26" lengthAdjust="spacingAndGlyphs" textLength="384" x="424" y="637.7031">Service initialized successfully</text><path d="M108,677.1875 L256,677.1875 L256,691.1875 L236,711.1875 L108,711.1875 L108,677.1875 " fill="#EEEEEE" style="stroke: #000000; stroke-width: 2.0;"/><rect fill="none" height="569.1875" style="stroke: #000000; stroke-width: 4.0;" width="1322" x="108" y="677.1875"/><text fill="#000000" font-family="sans-serif" font-size="26" font-weight="bold" lengthAdjust="spacingAndGlyphs" textLength="58" x="138" y="704.3242">loop</text><text fill="#000000" font-family="sans-serif" font-size="22" font-weight="bold" lengthAdjust="spacingAndGlyphs" textLength="406" x="286" y="702.457">[while  "gRPC client available only"]</text><polygon fill="#A80036" points="798,746.4297,818,754.4297,798,762.4297,806,754.4297" style="stroke: #A80036; stroke-width: 2.0;"/><line style="stroke: #A80036; stroke-width: 2.0;" x1="189" x2="810" y1="754.4297" y2="754.4297"/><text fill="#000000" font-family="sans-serif" font-size="26" lengthAdjust="spacingAndGlyphs" textLength="144" x="203" y="744.9453">HTTP GET /</text><polygon fill="#A80036" points="211,805.0508,191,813.0508,211,821.0508,203,813.0508" style="stroke: #A80036; stroke-width: 2.0;"/><line style="stroke: #A80036; stroke-width: 2.0; stroke-dasharray: 2.0,2.0;" x1="199" x2="830" y1="813.0508" y2="813.0508"/><text fill="#000000" font-family="sans-serif" font-size="26" lengthAdjust="spacingAndGlyphs" textLength="314" x="223" y="803.5664">Respond with index.html</text><polygon fill="#A80036" points="1108,863.6719,1128,871.6719,1108,879.6719,1116,871.6719" style="stroke: #A80036; stroke-width: 2.0;"/><line style="stroke: #A80036; stroke-width: 2.0;" x1="189" x2="1120" y1="871.6719" y2="871.6719"/><text fill="#000000" font-family="sans-serif" font-size="26" lengthAdjust="spacingAndGlyphs" textLength="352" x="203" y="862.1875">Compile and prepare WEB UI</text><rect fill="#FEFECE" filter="url(#f1re2xz5ut2sqf)" height="60.9766" style="stroke: #A80036; stroke-width: 3.0;" width="56" x="1132" y="829.0508"/><text fill="#000000" font-family="sans-serif" font-size="28" lengthAdjust="spacingAndGlyphs" textLength="28" x="1146" y="870.1211">UI</text><polygon fill="#A80036" points="864,954.6484,844,962.6484,864,970.6484,856,962.6484" style="stroke: #A80036; stroke-width: 2.0;"/><line style="stroke: #A80036; stroke-width: 2.0;" x1="852" x2="1152" y1="962.6484" y2="962.6484"/><text fill="#000000" font-family="sans-serif" font-size="26" lengthAdjust="spacingAndGlyphs" textLength="274" x="876" y="953.1641">HTTP GET /timeseries</text><polygon fill="#A80036" points="1289,1074.5117,1309,1082.5117,1289,1090.5117,1297,1082.5117" style="stroke: #A80036; stroke-width: 2.0;"/><line style="stroke: #A80036; stroke-width: 2.0; stroke-dasharray: 2.0,2.0;" x1="842" x2="1301" y1="1082.5117" y2="1082.5117"/><text fill="#000000" font-family="sans-serif" font-size="26" lengthAdjust="spacingAndGlyphs" textLength="174" x="856" y="1011.7852">gRPC request,</text><text fill="#000000" font-family="sans-serif" font-size="26" lengthAdjust="spacingAndGlyphs" textLength="220" x="856" y="1042.4063">failed as server is</text><text fill="#000000" font-family="sans-serif" font-size="26" lengthAdjust="spacingAndGlyphs" textLength="160" x="856" y="1073.0273">not available</text><polygon fill="#A80036" points="1130,1163.7539,1150,1171.7539,1130,1179.7539,1138,1171.7539" style="stroke: #A80036; stroke-width: 2.0;"/><line style="stroke: #A80036; stroke-width: 2.0; stroke-dasharray: 2.0,2.0;" x1="832" x2="1142" y1="1171.7539" y2="1171.7539"/><text fill="#000000" font-family="sans-serif" font-size="26" lengthAdjust="spacingAndGlyphs" textLength="190" x="846" y="1131.6484">HTTP error 502</text><text fill="#000000" font-family="sans-serif" font-size="26" lengthAdjust="spacingAndGlyphs" textLength="156" x="846" y="1162.2695">Bad Gateway</text><polygon fill="#A80036" points="211,1222.375,191,1230.375,211,1238.375,203,1230.375" style="stroke: #A80036; stroke-width: 2.0;"/><line style="stroke: #A80036; stroke-width: 2.0; stroke-dasharray: 2.0,2.0;" x1="199" x2="1162" y1="1230.375" y2="1230.375"/><text fill="#000000" font-family="sans-serif" font-size="26" lengthAdjust="spacingAndGlyphs" textLength="422" x="223" y="1220.8906">Error: gRPC server is not available</text><polygon fill="#A80036" points="1192,1356.2383,1212,1364.2383,1192,1372.2383,1200,1364.2383" style="stroke: #A80036; stroke-width: 2.0;"/><line style="stroke: #A80036; stroke-width: 2.0;" x1="390" x2="1204" y1="1364.2383" y2="1364.2383"/><text fill="#000000" font-family="sans-serif" font-size="26" lengthAdjust="spacingAndGlyphs" textLength="166" x="404" y="1293.5117">Initialization,</text><text fill="#000000" font-family="sans-serif" font-size="26" lengthAdjust="spacingAndGlyphs" textLength="270" x="404" y="1324.1328">acquire configuration</text><text fill="#000000" font-family="sans-serif" font-size="26" lengthAdjust="spacingAndGlyphs" textLength="268" x="404" y="1354.7539">with CSV file location</text><rect fill="#FEFECE" filter="url(#f1re2xz5ut2sqf)" height="60.9766" style="stroke: #A80036; stroke-width: 3.0;" width="186" x="1216" y="1289.2617"/><text fill="#000000" font-family="sans-serif" font-size="28" lengthAdjust="spacingAndGlyphs" textLength="158" x="1230" y="1330.332">gRPCServer</text><path d="M16,1290.9961 L16,1340.9961 L372,1340.9961 L372,1310.9961 L352,1290.9961 L16,1290.9961 " fill="#FBFB77" filter="url(#f1re2xz5ut2sqf)" style="stroke: #A80036; stroke-width: 2.0;"/><path d="M352,1290.9961 L352,1310.9961 L372,1310.9961 L352,1290.9961 " fill="#FBFB77" style="stroke: #A80036; stroke-width: 2.0;"/><text fill="#000000" font-family="sans-serif" font-size="26" lengthAdjust="spacingAndGlyphs" textLength="314" x="28" y="1326.1328">gRPC server initialization</text><line style="stroke: #A80036; stroke-width: 2.0;" x1="1323" x2="1407" y1="1422.8594" y2="1422.8594"/><line style="stroke: #A80036; stroke-width: 2.0;" x1="1407" x2="1407" y1="1422.8594" y2="1448.8594"/><line style="stroke: #A80036; stroke-width: 2.0;" x1="1325" x2="1407" y1="1448.8594" y2="1448.8594"/><polygon fill="#A80036" points="1345,1440.8594,1325,1448.8594,1345,1456.8594,1337,1448.8594" style="stroke: #A80036; stroke-width: 2.0;"/><text fill="#000000" font-family="sans-serif" font-size="26" lengthAdjust="spacingAndGlyphs" textLength="174" x="1337" y="1413.375">Index CSV file</text><line style="stroke: #A80036; stroke-width: 2.0;" x1="1323" x2="1407" y1="1507.4805" y2="1507.4805"/><line style="stroke: #A80036; stroke-width: 2.0;" x1="1407" x2="1407" y1="1507.4805" y2="1533.4805"/><line style="stroke: #A80036; stroke-width: 2.0;" x1="1325" x2="1407" y1="1533.4805" y2="1533.4805"/><polygon fill="#A80036" points="1345,1525.4805,1325,1533.4805,1345,1541.4805,1337,1533.4805" style="stroke: #A80036; stroke-width: 2.0;"/><text fill="#000000" font-family="sans-serif" font-size="26" lengthAdjust="spacingAndGlyphs" textLength="346" x="1337" y="1497.9961">Start serving gRPC requests</text><polygon fill="#A80036" points="412,1584.1016,392,1592.1016,412,1600.1016,404,1592.1016" style="stroke: #A80036; stroke-width: 2.0;"/><line style="stroke: #A80036; stroke-width: 2.0; stroke-dasharray: 2.0,2.0;" x1="400" x2="1311" y1="1592.1016" y2="1592.1016"/><text fill="#000000" font-family="sans-serif" font-size="26" lengthAdjust="spacingAndGlyphs" textLength="384" x="424" y="1582.6172">Service initialized successfully</text><path d="M108,1622.1016 L256,1622.1016 L256,1636.1016 L236,1656.1016 L108,1656.1016 L108,1622.1016 " fill="#EEEEEE" style="stroke: #000000; stroke-width: 2.0;"/><rect fill="none" height="797.0508" style="stroke: #000000; stroke-width: 4.0;" width="1459" x="108" y="1622.1016"/><text fill="#000000" font-family="sans-serif" font-size="26" font-weight="bold" lengthAdjust="spacingAndGlyphs" textLength="58" x="138" y="1649.2383">loop</text><text fill="#000000" font-family="sans-serif" font-size="22" font-weight="bold" lengthAdjust="spacingAndGlyphs" textLength="532" x="286" y="1647.3711">[while "gRPCServer and gRPCClient are active"]</text><polygon fill="#A80036" points="798,1691.3438,818,1699.3438,798,1707.3438,806,1699.3438" style="stroke: #A80036; stroke-width: 2.0;"/><line style="stroke: #A80036; stroke-width: 2.0;" x1="189" x2="810" y1="1699.3438" y2="1699.3438"/><text fill="#000000" font-family="sans-serif" font-size="26" lengthAdjust="spacingAndGlyphs" textLength="144" x="203" y="1689.8594">HTTP GET /</text><polygon fill="#A80036" points="211,1749.9648,191,1757.9648,211,1765.9648,203,1757.9648" style="stroke: #A80036; stroke-width: 2.0;"/><line style="stroke: #A80036; stroke-width: 2.0; stroke-dasharray: 2.0,2.0;" x1="199" x2="830" y1="1757.9648" y2="1757.9648"/><text fill="#000000" font-family="sans-serif" font-size="26" lengthAdjust="spacingAndGlyphs" textLength="314" x="223" y="1748.4805">Respond with index.html</text><polygon fill="#A80036" points="1108,1808.5859,1128,1816.5859,1108,1824.5859,1116,1816.5859" style="stroke: #A80036; stroke-width: 2.0;"/><line style="stroke: #A80036; stroke-width: 2.0;" x1="189" x2="1120" y1="1816.5859" y2="1816.5859"/><text fill="#000000" font-family="sans-serif" font-size="26" lengthAdjust="spacingAndGlyphs" textLength="352" x="203" y="1807.1016">Compile and prepare WEB UI</text><rect fill="#FEFECE" filter="url(#f1re2xz5ut2sqf)" height="60.9766" style="stroke: #A80036; stroke-width: 3.0;" width="56" x="1132" y="1773.9648"/><text fill="#000000" font-family="sans-serif" font-size="28" lengthAdjust="spacingAndGlyphs" textLength="28" x="1146" y="1815.0352">UI</text><polygon fill="#A80036" points="864,1899.5625,844,1907.5625,864,1915.5625,856,1907.5625" style="stroke: #A80036; stroke-width: 2.0;"/><line style="stroke: #A80036; stroke-width: 2.0;" x1="852" x2="1152" y1="1907.5625" y2="1907.5625"/><text fill="#000000" font-family="sans-serif" font-size="26" lengthAdjust="spacingAndGlyphs" textLength="274" x="876" y="1898.0781">HTTP GET /timeseries</text><polygon fill="#A80036" points="1279,1958.1836,1299,1966.1836,1279,1974.1836,1287,1966.1836" style="stroke: #A80036; stroke-width: 2.0;"/><line style="stroke: #A80036; stroke-width: 2.0;" x1="842" x2="1291" y1="1966.1836" y2="1966.1836"/><text fill="#000000" font-family="sans-serif" font-size="26" lengthAdjust="spacingAndGlyphs" textLength="166" x="856" y="1956.6992">gRPC request</text><line style="stroke: #A80036; stroke-width: 2.0;" x1="1323" x2="1407" y1="2055.4258" y2="2055.4258"/><line style="stroke: #A80036; stroke-width: 2.0;" x1="1407" x2="1407" y1="2055.4258" y2="2081.4258"/><line style="stroke: #A80036; stroke-width: 2.0;" x1="1325" x2="1407" y1="2081.4258" y2="2081.4258"/><polygon fill="#A80036" points="1345,2073.4258,1325,2081.4258,1345,2089.4258,1337,2081.4258" style="stroke: #A80036; stroke-width: 2.0;"/><text fill="#000000" font-family="sans-serif" font-size="26" lengthAdjust="spacingAndGlyphs" textLength="160" x="1337" y="2015.3203">Read dataset</text><text fill="#000000" font-family="sans-serif" font-size="26" lengthAdjust="spacingAndGlyphs" textLength="164" x="1337" y="2045.9414">from CSV file</text><line style="stroke: #A80036; stroke-width: 2.0;" x1="1323" x2="1407" y1="2170.668" y2="2170.668"/><line style="stroke: #A80036; stroke-width: 2.0;" x1="1407" x2="1407" y1="2170.668" y2="2196.668"/><line style="stroke: #A80036; stroke-width: 2.0;" x1="1325" x2="1407" y1="2196.668" y2="2196.668"/><polygon fill="#A80036" points="1345,2188.668,1325,2196.668,1345,2204.668,1337,2196.668" style="stroke: #A80036; stroke-width: 2.0;"/><text fill="#000000" font-family="sans-serif" font-size="26" lengthAdjust="spacingAndGlyphs" textLength="198" x="1337" y="2130.5625">Convert dataset</text><text fill="#000000" font-family="sans-serif" font-size="26" lengthAdjust="spacingAndGlyphs" textLength="170" x="1337" y="2161.1836">to TimeSeries</text><polygon fill="#A80036" points="864,2247.2891,844,2255.2891,864,2263.2891,856,2255.2891" style="stroke: #A80036; stroke-width: 2.0;"/><line style="stroke: #A80036; stroke-width: 2.0; stroke-dasharray: 2.0,2.0;" x1="852" x2="1311" y1="2255.2891" y2="2255.2891"/><text fill="#000000" font-family="sans-serif" font-size="26" lengthAdjust="spacingAndGlyphs" textLength="386" x="876" y="2245.8047">gRPC Respond with TimeSeries</text><polygon fill="#A80036" points="1130,2336.5313,1150,2344.5313,1130,2352.5313,1138,2344.5313" style="stroke: #A80036; stroke-width: 2.0;"/><line style="stroke: #A80036; stroke-width: 2.0; stroke-dasharray: 2.0,2.0;" x1="832" x2="1142" y1="2344.5313" y2="2344.5313"/><text fill="#000000" font-family="sans-serif" font-size="26" lengthAdjust="spacingAndGlyphs" textLength="238" x="846" y="2304.4258">HTTP respond with</text><text fill="#000000" font-family="sans-serif" font-size="26" lengthAdjust="spacingAndGlyphs" textLength="206" x="846" y="2335.0469">TimeSeries JSON</text><polygon fill="#A80036" points="211,2395.1523,191,2403.1523,211,2411.1523,203,2403.1523" style="stroke: #A80036; stroke-width: 2.0;"/><line style="stroke: #A80036; stroke-width: 2.0; stroke-dasharray: 2.0,2.0;" x1="199" x2="1162" y1="2403.1523" y2="2403.1523"/><text fill="#000000" font-family="sans-serif" font-size="26" lengthAdjust="spacingAndGlyphs" textLength="282" x="223" y="2393.668">Show TimeSeries chart</text><polygon fill="#A80036" points="1140,2554.3945,1160,2562.3945,1140,2570.3945,1148,2562.3945" style="stroke: #A80036; stroke-width: 2.0;"/><line style="stroke: #A80036; stroke-width: 2.0;" x1="189" x2="1152" y1="2562.3945" y2="2562.3945"/><text fill="#000000" font-family="sans-serif" font-size="26" lengthAdjust="spacingAndGlyphs" textLength="200" x="203" y="2522.2891">Close page with</text><text fill="#000000" font-family="sans-serif" font-size="26" lengthAdjust="spacingAndGlyphs" textLength="198" x="203" y="2552.9102">WEB application</text><line style="stroke: #A80036; stroke-width: 4.0;" x1="1146" x2="1182" y1="2544.3945" y2="2580.3945"/><line style="stroke: #A80036; stroke-width: 4.0;" x1="1146" x2="1182" y1="2580.3945" y2="2544.3945"/><!--MD5=[da8ea8e5a9cd64945fa600971c06ece7]
@startuml gRPC proto
    actor Browser
        ServiceInitiator -> gRPCClient **: Initialization, \nacquire configuration \nwith gPRC address
        note left: gRPC client initialization
        activate gRPCClient
        gRPCClient -> gRPCClient : Start serving \n/index.html for \nHTTP GET requests
        gRPCClient -> gRPCClient : Start serving \n/timeseries for \nHTTP GET requests
        return Service initialized successfully

    loop while  "gRPC client available only"
        Browser -> gRPCClient : HTTP GET /
        activate gRPCClient
        return Respond with index.html
        Browser -> UI ** : Compile and prepare WEB UI
        activate UI
        UI -> gRPCClient: HTTP GET /timeseries
        activate gRPCClient
        gRPCClient - -> gRPCServer: gRPC request, \nfailed as server is \nnot available
        return HTTP error 502 \nBad Gateway
        return Error: gRPC server is not available
    end
        ServiceInitiator -> gRPCServer ** : Initialization, \nacquire configuration \nwith CSV file location
        note left: gRPC server initialization
        activate gRPCServer
        gRPCServer -> gRPCServer : Index CSV file
        gRPCServer -> gRPCServer : Start serving gRPC requests
        return Service initialized successfully
    loop while "gRPCServer and gRPCClient are active"
        Browser -> gRPCClient : HTTP GET /
        activate gRPCClient
        return Respond with index.html
        Browser -> UI ** : Compile and prepare WEB UI
        activate UI
        UI -> gRPCClient: HTTP GET /timeseries
        activate gRPCClient
        gRPCClient -> gRPCServer: gRPC request
        activate gRPCServer
        gRPCServer -> gRPCServer: Read dataset \nfrom CSV file
        gRPCServer -> gRPCServer: Convert dataset \nto TimeSeries
        return gRPC Respond with TimeSeries
        return HTTP respond with \nTimeSeries JSON
        return Show TimeSeries chart
    end
    ...
    Browser -> UI !! : Close page with \nWEB application
@enduml

PlantUML version 1.2020.09(Sun May 10 13:51:06 EEST 2020)
(GPL source distribution)
Java Runtime: OpenJDK Runtime Environment
JVM: OpenJDK 64-Bit Server VM
Java Version: 11.0.7+10-b765.65
Operating System: Mac OS X
Default Encoding: UTF-8
Language: en
Country: RU
--></g></svg>